<?xml version="1.0" encoding="UTF-8" standalone="no"?><!DOCTYPE svg PUBLIC "-//W3C//DTD SVG 1.1//EN" "http://www.w3.org/Graphics/SVG/1.1/DTD/svg11.dtd"><svg width="100%" height="100%" viewBox="0 0 84 84" version="1.1" xmlns="http://www.w3.org/2000/svg" xmlns:xlink="http://www.w3.org/1999/xlink" xml:space="preserve" xmlns:serif="http://www.serif.com/" style="fill-rule:evenodd;clip-rule:evenodd;stroke-linejoin:round;stroke-miterlimit:2;"><rect id="GapStyle40x40" x="-0" y="0" width="83.333" height="83.333" style="fill:none;"/><g><circle cx="41.667" cy="41.667" r="33.801" style="fill:#2c2c2c;"/><g><path d="M51.03,5.767l0.148,-0.001l0.12,0c15.701,0 28.448,12.747 28.448,28.448c0,15.702 -12.747,28.449 -28.448,28.449l-0.12,-0l-0.148,-0.001c7.762,-0.101 14.034,-6.436 14.034,-14.223c0,-7.851 -6.373,-14.225 -14.224,-14.225c7.851,0 14.224,-6.373 14.224,-14.224c0,-0.03 0,-0.06 0,-0.091l0,0.091c0,7.851 -6.373,14.224 -14.224,14.224c-7.85,0 -14.224,-6.373 -14.224,-14.224c0,-7.85 6.374,-14.224 14.224,-14.224c0.063,0 0.126,0 0.19,0.001Zm14.033,14.041l0,-0.001l0.001,0.061l-0.001,-0.06Zm-0.001,-0.091l-0,-0.001l0.001,0.055l-0.001,-0.054Zm-0.002,-0.091l-0,-0.001l0.001,0.052l-0.001,-0.051Zm-0.003,-0.09l0,-0.002l0.002,0.05l-0.002,-0.048Zm-0.003,-0.091l0,-0.002l0.002,0.05l-0.002,-0.048Zm-0.003,-0.09l-0.001,-0.003l0.002,0.049l-0.001,-0.046Zm-0.005,-0.09l0,-0.003l0.002,0.048l-0.002,-0.045Zm-0.005,-0.09l0,-0.004l0.003,0.048l-0.003,-0.044Zm-0.005,-0.09l-0,-0.004l0.003,0.048l-0.003,-0.044Zm-0.006,-0.09l-0,-0.004l0.003,0.047l-0.003,-0.043Zm-0.006,-0.09l-0.001,-0.004l0.004,0.047l-0.003,-0.043Zm-0.007,-0.089l-0.001,-0.005l0.004,0.047l-0.003,-0.042Zm-0.008,-0.09l-0,-0.005l0.004,0.047l-0.004,-0.042Zm-0.008,-0.089l-0.001,-0.005l0.005,0.046l-0.004,-0.041Zm-0.009,-0.089l-0,-0.006l0.004,0.047l-0.004,-0.041Zm-0.009,-0.089l-0.001,-0.006l0.005,0.047l-0.004,-0.041Zm-0.01,-0.088l-0.001,-0.007l0.006,0.047l-0.005,-0.04Zm-0.01,-0.089l-0.001,-0.007l0.005,0.047l-0.004,-0.04Zm-0.011,-0.088l-0.001,-0.007l0.006,0.046l-0.005,-0.039Zm-0.011,-0.088l-0.002,-0.008l0.006,0.046l-0.004,-0.038Zm-0.012,-0.088l-0.002,-0.008l0.007,0.046l-0.005,-0.038Zm-0.013,-0.088l-0.001,-0.008l0.006,0.045l-0.005,-0.037Zm-0.013,-0.088l-0.001,-0.008l0.007,0.045l-0.006,-0.037Zm-0.014,-0.087l-0.001,-0.009l0.007,0.046l-0.006,-0.037Zm-0.014,-0.088l-0.001,-0.009l0.007,0.046l-0.006,-0.037Zm-0.014,-0.087l-0.002,-0.009l0.008,0.045l-0.006,-0.036Zm-0.015,-0.087l-0.002,-0.01l0.008,0.046l-0.006,-0.036Zm-0.016,-0.086l-0.002,-0.011l0.008,0.046l-0.006,-0.035Zm-0.016,-0.087l-0.002,-0.011l0.008,0.046l-0.006,-0.035Zm-0.017,-0.086l-0.002,-0.012l0.009,0.046l-0.007,-0.034Zm-0.017,-0.087l-0.003,-0.011l0.01,0.045l-0.007,-0.034Zm-0.018,-0.086l-0.002,-0.012l0.009,0.046l-0.007,-0.034Zm-0.018,-0.086l-0.003,-0.012l0.01,0.046l-0.007,-0.034Zm-0.019,-0.085l-0.003,-0.013l0.01,0.046l-0.007,-0.033Zm-0.019,-0.086l-0.003,-0.013l0.01,0.046l-0.007,-0.033Zm-0.02,-0.085l-0.003,-0.013l0.01,0.045l-0.007,-0.032Zm-0.02,-0.085l-0.004,-0.014l0.011,0.046l-0.007,-0.032Zm-0.021,-0.085l-0.004,-0.014l0.011,0.046l-0.007,-0.032Zm-0.022,-0.085l-0.003,-0.014l0.011,0.046l-0.008,-0.032Zm-0.022,-0.084l-0.004,-0.015l0.013,0.046l-0.009,-0.031Zm-0.022,-0.084l-0.004,-0.016l0.012,0.046l-0.008,-0.03Zm-0.023,-0.084l-0.004,-0.016l0.013,0.046l-0.009,-0.03Zm-0.023,-0.084l-0.005,-0.016l0.013,0.046l-0.008,-0.03Zm-0.024,-0.084l-0.005,-0.017l0.014,0.047l-0.009,-0.03Zm-0.024,-0.083l-0.005,-0.017l0.013,0.046l-0.008,-0.029Zm-0.025,-0.084l-0.005,-0.017l0.014,0.047l-0.009,-0.03Zm-0.026,-0.083l-0.005,-0.017l0.014,0.046l-0.009,-0.029Zm-0.025,-0.082l-0.006,-0.019l0.015,0.047l-0.009,-0.028Zm-0.027,-0.083l-0.006,-0.019l0.015,0.047l-0.009,-0.028Zm-0.026,-0.082l-0.007,-0.019l0.016,0.047l-0.009,-0.028Zm-0.028,-0.082l-0.006,-0.02l0.015,0.047l-0.009,-0.027Zm-0.028,-0.082l-0.007,-0.02l0.017,0.047l-0.01,-0.027Zm-0.028,-0.082l-0.007,-0.021l0.016,0.048l-0.009,-0.027Zm-0.029,-0.082l-0.007,-0.021l0.017,0.048l-0.01,-0.027Zm-0.029,-0.081l-0.008,-0.021l0.018,0.048l-0.01,-0.027Zm-0.03,-0.081l-0.008,-0.022l0.018,0.048l-0.01,-0.026Zm-0.03,-0.081l-0.008,-0.022l0.018,0.048l-0.01,-0.026Zm-0.03,-0.08l-0.009,-0.023l0.018,0.049l-0.009,-0.026Zm-0.032,-0.08l-0.009,-0.024l0.019,0.049l-0.01,-0.025Zm-0.031,-0.081l-0.01,-0.023l0.02,0.049l-0.01,-0.026Zm-0.032,-0.079l-0.01,-0.025l0.02,0.049l-0.01,-0.024Zm-0.033,-0.08l-0.01,-0.025l0.02,0.05l-0.01,-0.025Zm-0.033,-0.079l-0.011,-0.026l0.021,0.05l-0.01,-0.024Zm-0.033,-0.079l-0.012,-0.027l0.022,0.051l-0.01,-0.024Zm-0.034,-0.079l-0.012,-0.027l0.022,0.05l-0.01,-0.023Zm-0.035,-0.079l-0.012,-0.027l0.023,0.051l-0.011,-0.024Zm-0.035,-0.078l-0.012,-0.028l0.023,0.051l-0.011,-0.023Zm-0.035,-0.078l-0.013,-0.029l0.024,0.052l-0.011,-0.023Zm-0.036,-0.078l-0.013,-0.03l0.024,0.052l-0.011,-0.022Zm-0.036,-0.078l-0.014,-0.03l0.025,0.052l-0.011,-0.022Zm-0.037,-0.077l-0.014,-0.031l0.025,0.053l-0.011,-0.022Zm-0.037,-0.078l-0.015,-0.031l0.026,0.054l-0.011,-0.023Zm-0.037,-0.076l-0.016,-0.032l0.026,0.053l-0.01,-0.021Zm-0.038,-0.077l-0.017,-0.033l0.027,0.055l-0.01,-0.022Zm-0.039,-0.076l-0.017,-0.034l0.028,0.055l-0.011,-0.021Zm-0.039,-0.076l-0.017,-0.035l0.028,0.056l-0.011,-0.021Zm-0.039,-0.076l-0.018,-0.035l0.029,0.056l-0.011,-0.021Zm-0.04,-0.076l-0.019,-0.036l0.03,0.057l-0.011,-0.021Zm-0.04,-0.075l-0.02,-0.037l0.031,0.057l-0.011,-0.02Zm-0.041,-0.075l-0.02,-0.038l0.031,0.058l-0.011,-0.02Zm-0.041,-0.075l-0.021,-0.038l0.032,0.058l-0.011,-0.02Zm-0.041,-0.074l-0.023,-0.04l0.034,0.059l-0.011,-0.019Zm-0.042,-0.074l-0.024,-0.041l0.035,0.06l-0.011,-0.019Zm-0.043,-0.074l-0.024,-0.042l0.035,0.061l-0.011,-0.019Zm-0.043,-0.074l-0.025,-0.043l0.036,0.062l-0.011,-0.019Zm-0.043,-0.073l-0.026,-0.044l0.037,0.062l-0.011,-0.018Zm-0.044,-0.073l-0.027,-0.045l0.038,0.063l-0.011,-0.018Zm-0.044,-0.073l-0.028,-0.047l0.039,0.065l-0.011,-0.018Zm-0.044,-0.073l-0.03,-0.047l0.041,0.065l-0.011,-0.018Zm-0.045,-0.072l-0.031,-0.049l0.042,0.067l-0.011,-0.018Zm-0.046,-0.072l-0.032,-0.05l0.043,0.068l-0.011,-0.018Zm-0.046,-0.072l-0.033,-0.052l0.045,0.07l-0.012,-0.018Zm-0.046,-0.071l-0.035,-0.054l0.046,0.071l-0.011,-0.017Zm-2.421,-2.826c0.909,0.816 1.712,1.748 2.386,2.772c-0.674,-1.024 -1.477,-1.956 -2.386,-2.772c-0.752,-0.677 -1.577,-1.274 -2.461,-1.779c-1.952,-1.115 -4.193,-1.782 -6.583,-1.858c3.471,0.11 6.63,1.467 9.044,3.637Zm-9.132,-3.639l-0.001,-0l0.056,0.001l-0.055,-0.001Zm-0.091,-0.002l-0,-0l0.022,0l-0.022,-0Z" style="fill:url(#_Linear1);"/><path d="M32.304,77.566l-0.149,0.001l-0.119,0c-15.702,0 -28.449,-12.739 -28.449,-28.43c0,-15.69 12.747,-28.429 28.449,-28.429l0.119,-0l0.149,0.001c-7.763,0.101 -14.035,6.431 -14.035,14.213c-0,7.846 6.373,14.215 14.224,14.215c-7.851,0 -14.224,6.37 -14.224,14.215c-0,0.031 -0,0.061 0,0.092l-0,-0.092c-0,-7.845 6.373,-14.215 14.224,-14.215c7.851,0 14.224,6.37 14.224,14.215c0,7.846 -6.373,14.215 -14.224,14.215c-0.063,0 -0.125,-0 -0.189,-0.001Zm-0.091,-0.001l0.001,-0l-0.023,-0.001l0.022,0.001Zm-0.091,-0.002l0.002,-0l-0.057,-0.002l0.055,0.002Zm-9.132,-3.637c0.753,0.676 1.578,1.273 2.462,1.778c1.952,1.114 4.193,1.78 6.582,1.856c-3.471,-0.11 -6.63,-1.465 -9.044,-3.634c-0.908,-0.816 -1.711,-1.747 -2.386,-2.771c0.675,1.024 1.478,1.955 2.386,2.771Zm-2.421,-2.825l0.035,0.054l-0.046,-0.071l0.011,0.017Zm-0.046,-0.071l0.034,0.052l-0.045,-0.069l0.011,0.017Zm-0.046,-0.071l0.032,0.05l-0.043,-0.068l0.011,0.018Zm-0.045,-0.072l0.031,0.049l-0.043,-0.067l0.012,0.018Zm-0.045,-0.072l0.029,0.047l-0.04,-0.066l0.011,0.019Zm-0.045,-0.073l0.029,0.046l-0.04,-0.064l0.011,0.018Zm-0.044,-0.073l0.027,0.045l-0.038,-0.063l0.011,0.018Zm-0.044,-0.073l0.027,0.044l-0.038,-0.063l0.011,0.019Zm-0.043,-0.073l0.025,0.043l-0.036,-0.062l0.011,0.019Zm-0.043,-0.074l0.024,0.042l-0.035,-0.061l0.011,0.019Zm-0.042,-0.073l0.023,0.04l-0.034,-0.06l0.011,0.02Zm-0.042,-0.075l0.022,0.04l-0.033,-0.059l0.011,0.019Zm-0.042,-0.074l0.022,0.038l-0.033,-0.058l0.011,0.02Zm-0.041,-0.075l0.021,0.038l-0.032,-0.058l0.011,0.02Zm-0.041,-0.075l0.02,0.037l-0.03,-0.057l0.01,0.02Zm-0.04,-0.075l0.019,0.036l-0.03,-0.057l0.011,0.021Zm-0.04,-0.075l0.019,0.034l-0.029,-0.055l0.01,0.021Zm-0.039,-0.076l0.018,0.034l-0.029,-0.055l0.011,0.021Zm-0.039,-0.076l0.017,0.033l-0.028,-0.055l0.011,0.022Zm-0.038,-0.077l0.016,0.033l-0.027,-0.054l0.011,0.021Zm-0.038,-0.076l0.015,0.032l-0.026,-0.054l0.011,0.022Zm-0.038,-0.077l0.015,0.031l-0.026,-0.053l0.011,0.022Zm-0.037,-0.077l0.015,0.03l-0.026,-0.052l0.011,0.022Zm-0.037,-0.077l0.014,0.029l-0.024,-0.052l0.01,0.023Zm-0.036,-0.078l0.014,0.029l-0.025,-0.052l0.011,0.023Zm-0.036,-0.078l0.013,0.029l-0.023,-0.052l0.01,0.023Zm-0.035,-0.078l0.012,0.028l-0.022,-0.051l0.01,0.023Zm-0.035,-0.078l0.012,0.027l-0.022,-0.051l0.01,0.024Zm-0.034,-0.079l0.011,0.027l-0.022,-0.05l0.011,0.023Zm-0.034,-0.079l0.011,0.027l-0.022,-0.051l0.011,0.024Zm-0.034,-0.079l0.011,0.026l-0.021,-0.05l0.01,0.024Zm-0.033,-0.079l0.011,0.025l-0.021,-0.049l0.01,0.024Zm-0.032,-0.08l0.01,0.025l-0.02,-0.049l0.01,0.024Zm-0.032,-0.079l0.009,0.024l-0.019,-0.049l0.01,0.025Zm-0.032,-0.08l0.009,0.023l-0.019,-0.049l0.01,0.026Zm-0.031,-0.081l0.009,0.023l-0.019,-0.048l0.01,0.025Zm-0.031,-0.08l0.009,0.022l-0.019,-0.048l0.01,0.026Zm-0.03,-0.081l0.008,0.022l-0.018,-0.048l0.01,0.026Zm-0.03,-0.081l0.008,0.022l-0.017,-0.048l0.009,0.026Zm-0.029,-0.081l0.008,0.021l-0.017,-0.048l0.009,0.027Zm-0.029,-0.081l0.007,0.02l-0.016,-0.047l0.009,0.027Zm-0.028,-0.082l0.007,0.02l-0.016,-0.047l0.009,0.027Zm-0.028,-0.082l0.007,0.02l-0.016,-0.047l0.009,0.027Zm-0.027,-0.082l0.006,0.019l-0.015,-0.047l0.009,0.028Zm-0.027,-0.082l0.006,0.018l-0.015,-0.046l0.009,0.028Zm-0.026,-0.083l0.006,0.018l-0.015,-0.046l0.009,0.028Zm-0.026,-0.083l0.005,0.018l-0.014,-0.046l0.009,0.028Zm-0.026,-0.083l0.006,0.018l-0.014,-0.047l0.008,0.029Zm-0.024,-0.083l0.005,0.017l-0.014,-0.046l0.009,0.029Zm-0.025,-0.083l0.005,0.017l-0.013,-0.047l0.008,0.03Zm-0.024,-0.084l0.005,0.017l-0.013,-0.047l0.008,0.03Zm-0.023,-0.083l0.004,0.015l-0.012,-0.046l0.008,0.031Zm-0.023,-0.085l0.004,0.016l-0.012,-0.046l0.008,0.03Zm-0.022,-0.084l0.004,0.015l-0.012,-0.046l0.008,0.031Zm-0.022,-0.084l0.004,0.015l-0.012,-0.046l0.008,0.031Zm-0.021,-0.085l0.003,0.015l-0.011,-0.046l0.008,0.031Zm-0.021,-0.085l0.003,0.014l-0.011,-0.046l0.008,0.032Zm-0.021,-0.085l0.004,0.014l-0.011,-0.046l0.007,0.032Zm-0.019,-0.085l0.003,0.013l-0.011,-0.045l0.008,0.032Zm-0.02,-0.085l0.003,0.013l-0.01,-0.046l0.007,0.033Zm-0.018,-0.086l0.002,0.013l-0.01,-0.046l0.008,0.033Zm-0.019,-0.086l0.003,0.012l-0.01,-0.045l0.007,0.033Zm-0.017,-0.086l0.002,0.012l-0.009,-0.046l0.007,0.034Zm-0.018,-0.086l0.003,0.012l-0.009,-0.046l0.006,0.034Zm-0.016,-0.086l0.002,0.011l-0.009,-0.046l0.007,0.035Zm-0.017,-0.087l0.002,0.011l-0.008,-0.046l0.006,0.035Zm-0.015,-0.086l0.002,0.01l-0.009,-0.046l0.007,0.036Zm-0.015,-0.087l0.001,0.01l-0.007,-0.046l0.006,0.036Zm-0.015,-0.087l0.002,0.009l-0.008,-0.046l0.006,0.037Zm-0.014,-0.088l0.001,0.009l-0.007,-0.045l0.006,0.036Zm-0.014,-0.087l0.002,0.009l-0.007,-0.046l0.005,0.037Zm-0.013,-0.088l0.001,0.009l-0.006,-0.046l0.005,0.037Zm-0.012,-0.087l0.001,0.008l-0.006,-0.046l0.005,0.038Zm-0.012,-0.088l0.001,0.007l-0.006,-0.046l0.005,0.039Zm-0.012,-0.088l0.001,0.007l-0.005,-0.046l0.004,0.039Zm-0.01,-0.089l0,0.007l-0.005,-0.046l0.005,0.039Zm-0.011,-0.088l0.001,0.006l-0.005,-0.046l0.004,0.04Zm-0.01,-0.089l0.001,0.006l-0.005,-0.046l0.004,0.04Zm-0.009,-0.089l0.001,0.006l-0.005,-0.046l0.004,0.04Zm-0.009,-0.089l0.001,0.006l-0.004,-0.047l0.003,0.041Zm-0.008,-0.089l0.001,0.005l-0.004,-0.046l0.003,0.041Zm-0.007,-0.089l0,0.005l-0.004,-0.047l0.004,0.042Zm-0.007,-0.089l0,0.004l-0.003,-0.047l0.003,0.043Zm-0.007,-0.09l0,0.004l-0.003,-0.047l0.003,0.043Zm-0.006,-0.09l0.001,0.004l-0.003,-0.048l0.002,0.044Zm-0.005,-0.089l0,0.003l-0.002,-0.048l0.002,0.045Zm-0.005,-0.09l0,0.002l-0.002,-0.048l0.002,0.046Zm-0.004,-0.091l-0,0.003l-0.002,-0.049l0.002,0.046Zm-0.004,-0.09l0,0.002l-0.002,-0.049l0.002,0.047Zm-0.003,-0.09l0,0.001l-0.001,-0.05l0.001,0.049Zm-0.003,-0.091l0,0.002l-0.001,-0.053l0.001,0.051Zm-0.002,-0.091l0,0.001l-0,-0.054l0,0.053Zm-0.001,-0.091l0,0.001l-0.001,-0.061l0.001,0.06Z" style="fill:url(#_Linear2);"/></g></g><defs><linearGradient id="_Linear1" x1="0" y1="0" x2="1" y2="0" gradientUnits="userSpaceOnUse" gradientTransform="matrix(28.5144,48.6997,-48.6997,28.5144,39.5289,12.58)"><stop offset="0" style="stop-color:#f92672;stop-opacity:1"/><stop offset="0.31" style="stop-color:#fd971f;stop-opacity:1"/><stop offset="0.58" style="stop-color:#e6db75;stop-opacity:1"/><stop offset="0.86" style="stop-color:#cbad96;stop-opacity:1"/><stop offset="1" style="stop-color:#a9b7c6;stop-opacity:1"/></linearGradient><linearGradient id="_Linear2" x1="0" y1="0" x2="1" y2="0" gradientUnits="userSpaceOnUse" gradientTransform="matrix(36.2562,46.359,-21.01,16.4314,6.1792,26.6458)"><stop offset="0" style="stop-color:#4186f8;stop-opacity:1"/><stop offset="0.19" style="stop-color:#66d9ef;stop-opacity:1"/><stop offset="0.43" style="stop-color:#00cfd3;stop-opacity:1"/><stop offset="0.66" style="stop-color:#0ed38b;stop-opacity:1"/><stop offset="1" style="stop-color:#a6e22e;stop-opacity:1"/></linearGradient></defs></svg>